<svg id="visual" viewBox="0 0 900 600" width="900" height="600" xmlns="http://www.w3.org/2000/svg" xmlns:xlink="http://www.w3.org/1999/xlink" version="1.1"><path d="M620 600L622.3 587.5C624.7 575 629.3 550 640.3 525C651.3 500 668.7 475 678.3 450C688 425 690 400 681.3 375C672.7 350 653.3 325 639.8 300C626.3 275 618.7 250 615 225C611.3 200 611.7 175 612.7 150C613.7 125 615.3 100 631.8 75C648.3 50 679.7 25 695.3 12.5L711 0L900 0L900 12.5C900 25 900 50 900 75C900 100 900 125 900 150C900 175 900 200 900 225C900 250 900 275 900 300C900 325 900 350 900 375C900 400 900 425 900 450C900 475 900 500 900 525C900 550 900 575 900 587.5L900 600Z" fill="#507dbc"></path><path d="M704 600L706.3 587.5C708.7 575 713.3 550 712.3 525C711.3 500 704.7 475 701.8 450C699 425 700 400 702.8 375C705.7 350 710.3 325 709.2 300C708 275 701 250 691.3 225C681.7 200 669.3 175 664.5 150C659.7 125 662.3 100 677.8 75C693.3 50 721.7 25 735.8 12.5L750 0L900 0L900 12.5C900 25 900 50 900 75C900 100 900 125 900 150C900 175 900 200 900 225C900 250 900 275 900 300C900 325 900 350 900 375C900 400 900 425 900 450C900 475 900 500 900 525C900 550 900 575 900 587.5L900 600Z" fill="#6599c7"></path><path d="M759 600L763.7 587.5C768.3 575 777.7 550 771.8 525C766 500 745 475 731.7 450C718.3 425 712.7 400 710 375C707.3 350 707.7 325 717 300C726.3 275 744.7 250 747 225C749.3 200 735.7 175 737.7 150C739.7 125 757.3 100 758.7 75C760 50 745 25 737.5 12.5L730 0L900 0L900 12.5C900 25 900 50 900 75C900 100 900 125 900 150C900 175 900 200 900 225C900 250 900 275 900 300C900 325 900 350 900 375C900 400 900 425 900 450C900 475 900 500 900 525C900 550 900 575 900 587.5L900 600Z" fill="#86b3cf"></path><path d="M778 600L776.2 587.5C774.3 575 770.7 550 775.7 525C780.7 500 794.3 475 799 450C803.7 425 799.3 400 801.2 375C803 350 811 325 808.7 300C806.3 275 793.7 250 796 225C798.3 200 815.7 175 818.7 150C821.7 125 810.3 100 808.3 75C806.3 50 813.7 25 817.3 12.5L821 0L900 0L900 12.5C900 25 900 50 900 75C900 100 900 125 900 150C900 175 900 200 900 225C900 250 900 275 900 300C900 325 900 350 900 375C900 400 900 425 900 450C900 475 900 500 900 525C900 550 900 575 900 587.5L900 600Z" fill="#aeccd8"></path><path d="M820 600L820.8 587.5C821.7 575 823.3 550 823.2 525C823 500 821 475 819 450C817 425 815 400 814.8 375C814.7 350 816.3 325 821.7 300C827 275 836 250 844.3 225C852.7 200 860.3 175 861 150C861.7 125 855.3 100 847.8 75C840.3 50 831.7 25 827.3 12.5L823 0L900 0L900 12.5C900 25 900 50 900 75C900 100 900 125 900 150C900 175 900 200 900 225C900 250 900 275 900 300C900 325 900 350 900 375C900 400 900 425 900 450C900 475 900 500 900 525C900 550 900 575 900 587.5L900 600Z" fill="#dae3e5"></path></svg>