<svg id="visual" viewBox="0 0 900 600" width="900" height="600" xmlns="http://www.w3.org/2000/svg" xmlns:xlink="http://www.w3.org/1999/xlink" version="1.1"><path d="M687 600L672.7 587.5C658.3 575 629.7 550 632.7 525C635.7 500 670.3 475 688 450C705.7 425 706.3 400 703.3 375C700.3 350 693.7 325 687.2 300C680.7 275 674.3 250 668.8 225C663.3 200 658.7 175 664 150C669.3 125 684.7 100 695.3 75C706 50 712 25 715 12.5L718 0L900 0L900 12.5C900 25 900 50 900 75C900 100 900 125 900 150C900 175 900 200 900 225C900 250 900 275 900 300C900 325 900 350 900 375C900 400 900 425 900 450C900 475 900 500 900 525C900 550 900 575 900 587.5L900 600Z" fill="#507dbc"></path><path d="M699 600L706 587.5C713 575 727 550 730.5 525C734 500 727 475 719.2 450C711.3 425 702.7 400 708.7 375C714.7 350 735.3 325 733 300C730.7 275 705.3 250 704.2 225C703 200 726 175 737.2 150C748.3 125 747.7 100 749.2 75C750.7 50 754.3 25 756.2 12.5L758 0L900 0L900 12.5C900 25 900 50 900 75C900 100 900 125 900 150C900 175 900 200 900 225C900 250 900 275 900 300C900 325 900 350 900 375C900 400 900 425 900 450C900 475 900 500 900 525C900 550 900 575 900 587.5L900 600Z" fill="#6599c7"></path><path d="M782 600L773 587.5C764 575 746 550 734.5 525C723 500 718 475 719 450C720 425 727 400 734.2 375C741.3 350 748.7 325 755.3 300C762 275 768 250 771.7 225C775.3 200 776.7 175 765.8 150C755 125 732 100 721 75C710 50 711 25 711.5 12.5L712 0L900 0L900 12.5C900 25 900 50 900 75C900 100 900 125 900 150C900 175 900 200 900 225C900 250 900 275 900 300C900 325 900 350 900 375C900 400 900 425 900 450C900 475 900 500 900 525C900 550 900 575 900 587.5L900 600Z" fill="#86b3cf"></path><path d="M765 600L772.2 587.5C779.3 575 793.7 550 804.3 525C815 500 822 475 818.2 450C814.3 425 799.7 400 799.7 375C799.7 350 814.3 325 812.7 300C811 275 793 250 790.3 225C787.7 200 800.3 175 802.7 150C805 125 797 100 790.7 75C784.3 50 779.7 25 777.3 12.5L775 0L900 0L900 12.5C900 25 900 50 900 75C900 100 900 125 900 150C900 175 900 200 900 225C900 250 900 275 900 300C900 325 900 350 900 375C900 400 900 425 900 450C900 475 900 500 900 525C900 550 900 575 900 587.5L900 600Z" fill="#aeccd8"></path><path d="M824 600L824.2 587.5C824.3 575 824.7 550 828.8 525C833 500 841 475 847.3 450C853.7 425 858.3 400 859.3 375C860.3 350 857.7 325 853 300C848.3 275 841.7 250 843.3 225C845 200 855 175 853.8 150C852.7 125 840.3 100 836.3 75C832.3 50 836.7 25 838.8 12.5L841 0L900 0L900 12.5C900 25 900 50 900 75C900 100 900 125 900 150C900 175 900 200 900 225C900 250 900 275 900 300C900 325 900 350 900 375C900 400 900 425 900 450C900 475 900 500 900 525C900 550 900 575 900 587.5L900 600Z" fill="#dae3e5"></path></svg>