<svg id="visual" viewBox="0 0 900 600" width="900" height="600" xmlns="http://www.w3.org/2000/svg" xmlns:xlink="http://www.w3.org/1999/xlink" version="1.1"><path d="M719 600L712.2 587.5C705.3 575 691.7 550 672.3 525C653 500 628 475 632.3 450C636.7 425 670.3 400 686.7 375C703 350 702 325 695.2 300C688.3 275 675.7 250 672.3 225C669 200 675 175 666.8 150C658.7 125 636.3 100 625.3 75C614.3 50 614.7 25 614.8 12.5L615 0L900 0L900 12.5C900 25 900 50 900 75C900 100 900 125 900 150C900 175 900 200 900 225C900 250 900 275 900 300C900 325 900 350 900 375C900 400 900 425 900 450C900 475 900 500 900 525C900 550 900 575 900 587.5L900 600Z" fill="#507dbc"></path><path d="M757 600L752.2 587.5C747.3 575 737.7 550 726.5 525C715.3 500 702.7 475 695.7 450C688.7 425 687.3 400 694.3 375C701.3 350 716.7 325 723.7 300C730.7 275 729.3 250 720.2 225C711 200 694 175 683 150C672 125 667 100 667.7 75C668.3 50 674.7 25 677.8 12.5L681 0L900 0L900 12.5C900 25 900 50 900 75C900 100 900 125 900 150C900 175 900 200 900 225C900 250 900 275 900 300C900 325 900 350 900 375C900 400 900 425 900 450C900 475 900 500 900 525C900 550 900 575 900 587.5L900 600Z" fill="#6599c7"></path><path d="M722 600L730.2 587.5C738.3 575 754.7 550 766.8 525C779 500 787 475 785.7 450C784.3 425 773.7 400 771.5 375C769.3 350 775.7 325 780.3 300C785 275 788 250 782.7 225C777.3 200 763.7 175 763.2 150C762.7 125 775.3 100 770.5 75C765.7 50 743.3 25 732.2 12.5L721 0L900 0L900 12.5C900 25 900 50 900 75C900 100 900 125 900 150C900 175 900 200 900 225C900 250 900 275 900 300C900 325 900 350 900 375C900 400 900 425 900 450C900 475 900 500 900 525C900 550 900 575 900 587.5L900 600Z" fill="#86b3cf"></path><path d="M813 600L814.8 587.5C816.7 575 820.3 550 821.8 525C823.3 500 822.7 475 823.2 450C823.7 425 825.3 400 823.7 375C822 350 817 325 807 300C797 275 782 250 773.8 225C765.7 200 764.3 175 768.3 150C772.3 125 781.7 100 788.8 75C796 50 801 25 803.5 12.5L806 0L900 0L900 12.5C900 25 900 50 900 75C900 100 900 125 900 150C900 175 900 200 900 225C900 250 900 275 900 300C900 325 900 350 900 375C900 400 900 425 900 450C900 475 900 500 900 525C900 550 900 575 900 587.5L900 600Z" fill="#aeccd8"></path><path d="M841 600L841 587.5C841 575 841 550 836.5 525C832 500 823 475 822.7 450C822.3 425 830.7 400 838.8 375C847 350 855 325 858 300C861 275 859 250 854.2 225C849.3 200 841.7 175 841.3 150C841 125 848 100 847 75C846 50 837 25 832.5 12.5L828 0L900 0L900 12.5C900 25 900 50 900 75C900 100 900 125 900 150C900 175 900 200 900 225C900 250 900 275 900 300C900 325 900 350 900 375C900 400 900 425 900 450C900 475 900 500 900 525C900 550 900 575 900 587.5L900 600Z" fill="#dae3e5"></path></svg>